<mxfile host="app.diagrams.net" modified="2022-10-29T12:59:40.579Z" agent="5.0 (Windows NT 10.0; Win64; x64) AppleWebKit/537.36 (KHTML, like Gecko) Chrome/106.0.0.0 Safari/537.36 Edg/106.0.1370.52" etag="Qpm1QkVGouEe44QRRuZg" version="20.5.1" type="github">
  <diagram id="Ph3wyjxU2wHUQVqy0Yhi" name="第 1 页">
    <mxGraphModel dx="1004" dy="610" grid="1" gridSize="10" guides="1" tooltips="1" connect="1" arrows="1" fold="1" page="1" pageScale="1" pageWidth="827" pageHeight="1169" math="0" shadow="0">
      <root>
        <mxCell id="0" />
        <mxCell id="1" parent="0" />
        <mxCell id="3Tp1iuVyv0rbpycUot5t-2" value="Homepage" style="rounded=0;whiteSpace=wrap;html=1;strokeWidth=3;" vertex="1" parent="1">
          <mxGeometry x="260" y="30" width="120" height="60" as="geometry" />
        </mxCell>
        <mxCell id="3Tp1iuVyv0rbpycUot5t-7" value="" style="endArrow=none;html=1;rounded=0;strokeColor=#000000;strokeWidth=4;entryX=0.5;entryY=1;entryDx=0;entryDy=0;exitX=0;exitY=1;exitDx=0;exitDy=0;" edge="1" parent="1" source="3Tp1iuVyv0rbpycUot5t-17" target="3Tp1iuVyv0rbpycUot5t-2">
          <mxGeometry width="50" height="50" relative="1" as="geometry">
            <mxPoint x="320" y="170" as="sourcePoint" />
            <mxPoint x="320" y="100" as="targetPoint" />
          </mxGeometry>
        </mxCell>
        <mxCell id="3Tp1iuVyv0rbpycUot5t-8" value="" style="shape=partialRectangle;whiteSpace=wrap;html=1;bottom=0;right=0;fillColor=none;strokeWidth=4;" vertex="1" parent="1">
          <mxGeometry x="130" y="120" width="190" height="30" as="geometry" />
        </mxCell>
        <mxCell id="3Tp1iuVyv0rbpycUot5t-17" value="" style="shape=partialRectangle;whiteSpace=wrap;html=1;bottom=0;right=0;fillColor=none;strokeWidth=4;flipH=1;" vertex="1" parent="1">
          <mxGeometry x="320" y="120" width="240" height="30" as="geometry" />
        </mxCell>
        <mxCell id="3Tp1iuVyv0rbpycUot5t-21" value="about" style="rounded=0;whiteSpace=wrap;html=1;strokeWidth=3;" vertex="1" parent="1">
          <mxGeometry x="80" y="150" width="120" height="60" as="geometry" />
        </mxCell>
        <mxCell id="3Tp1iuVyv0rbpycUot5t-22" value="location" style="rounded=0;whiteSpace=wrap;html=1;strokeWidth=3;" vertex="1" parent="1">
          <mxGeometry x="270" y="150" width="120" height="60" as="geometry" />
        </mxCell>
        <mxCell id="3Tp1iuVyv0rbpycUot5t-23" value="resource" style="rounded=0;whiteSpace=wrap;html=1;strokeWidth=3;" vertex="1" parent="1">
          <mxGeometry x="500" y="150" width="120" height="60" as="geometry" />
        </mxCell>
        <mxCell id="3Tp1iuVyv0rbpycUot5t-24" value="" style="line;strokeWidth=4;direction=south;html=1;perimeter=backbonePerimeter;points=[];outlineConnect=0;" vertex="1" parent="1">
          <mxGeometry x="555" y="210" width="10" height="40" as="geometry" />
        </mxCell>
        <mxCell id="3Tp1iuVyv0rbpycUot5t-25" value="" style="shape=partialRectangle;whiteSpace=wrap;html=1;bottom=0;right=0;fillColor=none;strokeWidth=4;flipH=1;" vertex="1" parent="1">
          <mxGeometry x="560" y="250" width="90" height="20" as="geometry" />
        </mxCell>
        <mxCell id="3Tp1iuVyv0rbpycUot5t-30" value="" style="shape=partialRectangle;whiteSpace=wrap;html=1;bottom=0;right=0;fillColor=none;strokeWidth=4;" vertex="1" parent="1">
          <mxGeometry x="480" y="250" width="80" height="20" as="geometry" />
        </mxCell>
        <mxCell id="3Tp1iuVyv0rbpycUot5t-31" value="美食部落格" style="rounded=0;whiteSpace=wrap;html=1;strokeWidth=3;" vertex="1" parent="1">
          <mxGeometry x="590" y="270" width="120" height="60" as="geometry" />
        </mxCell>
        <mxCell id="3Tp1iuVyv0rbpycUot5t-32" value="就地取景" style="rounded=0;whiteSpace=wrap;html=1;strokeWidth=3;" vertex="1" parent="1">
          <mxGeometry x="435" y="270" width="120" height="60" as="geometry" />
        </mxCell>
        <mxCell id="3Tp1iuVyv0rbpycUot5t-34" value="" style="line;strokeWidth=4;direction=south;html=1;perimeter=backbonePerimeter;points=[];outlineConnect=0;" vertex="1" parent="1">
          <mxGeometry x="315" y="210" width="10" height="40" as="geometry" />
        </mxCell>
        <mxCell id="3Tp1iuVyv0rbpycUot5t-35" value="" style="shape=partialRectangle;whiteSpace=wrap;html=1;bottom=0;right=0;fillColor=none;strokeWidth=4;" vertex="1" parent="1">
          <mxGeometry x="200" y="250" width="120" height="20" as="geometry" />
        </mxCell>
        <mxCell id="3Tp1iuVyv0rbpycUot5t-36" value="" style="shape=partialRectangle;whiteSpace=wrap;html=1;bottom=0;right=0;fillColor=none;strokeWidth=4;flipH=1;" vertex="1" parent="1">
          <mxGeometry x="324" y="250" width="56" height="20" as="geometry" />
        </mxCell>
        <mxCell id="3Tp1iuVyv0rbpycUot5t-37" value="靜宜夜市" style="rounded=0;whiteSpace=wrap;html=1;strokeWidth=3;" vertex="1" parent="1">
          <mxGeometry x="290" y="270" width="124" height="60" as="geometry" />
        </mxCell>
        <mxCell id="3Tp1iuVyv0rbpycUot5t-38" value="靜宜商圈" style="rounded=0;whiteSpace=wrap;html=1;strokeWidth=3;" vertex="1" parent="1">
          <mxGeometry x="140" y="270" width="120" height="60" as="geometry" />
        </mxCell>
      </root>
    </mxGraphModel>
  </diagram>
</mxfile>
